<!-- icon666.com - MILLIONS OF FREE VECTOR ICONS --><svg version="1.1" id="Capa_1" xmlns="http://www.w3.org/2000/svg" xmlns:xlink="http://www.w3.org/1999/xlink" x="0px" y="0px" viewBox="0 0 512 512" style="enable-background:new 0 0 512 512;" xml:space="preserve"><g><path style="" d="M219.012,297.843c-11.346-14.839-19.383-31.936-23.57-50.141 c-1.284-6.547-4.479-12.568-9.181-17.302c-6.215-6.235-9.707-14.678-9.71-23.481v-31.338c0.005-5.151,1.214-10.23,3.531-14.83 l1.766-3.708c2.317-4.601,3.526-9.679,3.531-14.83V97.103c-0.013-9.055,1.757-18.023,5.208-26.394l-0.088-0.088h-45.55 c-33.733,0.011-61.076,27.354-61.087,61.087v39.106c-0.018,4.439-1.044,8.816-3.001,12.8l-1.589,3.178 c-1.998,3.97-3.026,8.356-3.001,12.8v27.189c-0.005,7.612,3.012,14.914,8.386,20.303c4.03,4.092,6.762,9.281,7.857,14.919 c3.857,15.739,10.952,30.5,20.833,43.343c0.9,1.331,1.391,2.896,1.412,4.502v23.834c0.005,0.599-0.084,1.195-0.265,1.766 c-0.364,2.029-1.631,3.783-3.443,4.767l-22.334,13.33L25.953,391.15C9.857,400.805,0.005,418.196,0,436.966v48.552h88.276v-35.663 c0.008-21.701,11.401-41.807,30.014-52.966l25.159-15.095l33.103-19.862l2.825-1.677l1.589-0.971l35.399-21.275 c2.712-1.559,4.367-4.464,4.326-7.592v-27.454C220.675,301.124,220.089,299.334,219.012,297.843z" fill="#7F8C8D"></path><path style="fill: rgb(76, 92, 107);" d="M116.966,381.793l-25.159,15.095c-18.613,11.159-30.006,31.264-30.014,52.966v35.663H0v-48.552 c0.005-18.77,9.857-36.161,25.953-45.815l62.764-37.606L116.966,381.793z" fill="#2C3E50"></path><path style="" d="M154.483,359.283l-1.589,0.971l-2.825,1.677l-33.103,19.862l-28.248-28.248l22.334-13.33 c1.812-0.984,3.078-2.738,3.443-4.767h0.265L154.483,359.283z" fill="#95A5A5"></path><path style="" d="M292.988,297.843c11.346-14.839,19.383-31.936,23.57-50.141c1.284-6.547,4.479-12.568,9.181-17.302 c6.215-6.235,9.707-14.678,9.71-23.481v-31.338c-0.005-5.151-1.214-10.23-3.531-14.83l-1.766-3.708 c-2.317-4.601-3.526-9.679-3.531-14.83V97.103c0.013-9.055-1.757-18.023-5.208-26.394l0.088-0.088h45.55 c33.733,0.011,61.076,27.354,61.087,61.087v39.106c0.018,4.439,1.044,8.816,3.001,12.8l1.589,3.178 c1.998,3.97,3.026,8.356,3.001,12.8v27.189c0.005,7.612-3.012,14.914-8.386,20.303c-4.03,4.092-6.762,9.281-7.857,14.919 c-3.857,15.739-10.952,30.5-20.833,43.343c-0.9,1.331-1.391,2.896-1.412,4.502v23.834c-0.005,0.599,0.084,1.195,0.265,1.766 c0.364,2.029,1.631,3.783,3.443,4.767l22.334,13.33l62.764,37.606c16.097,9.654,25.948,27.045,25.953,45.815v48.552h-88.276 v-35.663c-0.008-21.701-11.401-41.807-30.014-52.966l-25.159-15.095l-33.103-19.862l-2.825-1.677l-1.589-0.971l-35.399-21.275 c-2.712-1.559-4.367-4.464-4.326-7.592v-27.454C291.325,301.124,291.911,299.334,292.988,297.843z" fill="#7F8C8D"></path><path style="fill: rgb(76, 92, 107);" d="M395.034,381.793l25.159,15.095c18.613,11.159,30.006,31.264,30.014,52.966v35.663H512v-48.552 c-0.005-18.77-9.857-36.161-25.953-45.815l-62.764-37.606L395.034,381.793z" fill="#2C3E50"></path><path style="" d="M357.517,359.283l1.589,0.971l2.825,1.677l33.103,19.862l28.248-28.248l-22.334-13.33 c-1.812-0.984-3.078-2.738-3.443-4.767h-0.265L357.517,359.283z" fill="#95A5A5"></path><path style="" d="M152.894,360.254l-2.825,1.677l-58.262,34.957c-18.613,11.159-30.006,31.264-30.014,52.966v35.663 h388.414v-35.663c-0.008-21.701-11.401-41.807-30.014-52.966l-58.262-34.957l-2.825-1.677H152.894z" fill="#35495E"></path><path style="" d="M358.4,160.75l-1.766-3.708c-2.317-4.601-3.526-9.679-3.531-14.83V97.103 c0.01-17.039-6.17-33.501-17.39-46.324V50.67c-0.494-0.565-1.056-1.066-1.567-1.615c-0.884-0.95-1.774-1.891-2.709-2.791 c-0.758-0.73-1.543-1.425-2.332-2.12c-0.996-0.878-2.006-1.734-3.052-2.555c-0.827-0.65-1.668-1.274-2.524-1.887 c-1.072-0.768-2.165-1.504-3.28-2.21c-0.906-0.575-1.817-1.136-2.75-1.671c-1.131-0.648-2.287-1.248-3.457-1.834 c-0.975-0.489-1.947-0.975-2.947-1.419c-1.207-0.536-2.442-1.008-3.684-1.477c-1.012-0.382-2.015-0.778-3.048-1.115 c-1.32-0.429-2.672-0.776-4.024-1.129c-1.003-0.261-1.99-0.556-3.01-0.774c-1.544-0.33-3.122-0.553-4.701-0.781 c-0.869-0.125-1.718-0.303-2.597-0.396c-2.507-0.271-5.026-0.409-7.547-0.414h-52.966c-2.521,0.005-5.041,0.143-7.548,0.414 c-0.879,0.093-1.728,0.271-2.597,0.396c-1.579,0.228-3.158,0.451-4.701,0.781c-1.02,0.218-2.007,0.512-3.01,0.774 c-1.352,0.353-2.705,0.7-4.024,1.129c-1.034,0.337-2.036,0.733-3.048,1.115c-1.241,0.469-2.477,0.942-3.684,1.477 c-1,0.444-1.972,0.931-2.947,1.419c-1.17,0.586-2.326,1.186-3.457,1.834c-0.933,0.535-1.845,1.095-2.751,1.671 c-1.116,0.708-2.209,1.445-3.28,2.21c-0.856,0.613-1.697,1.238-2.524,1.887c-1.045,0.821-2.055,1.677-3.052,2.555 c-0.789,0.695-1.574,1.39-2.332,2.12c-0.935,0.9-1.824,1.841-2.709,2.791c-0.512,0.549-1.073,1.05-1.567,1.615v0.109 c-11.22,12.823-17.4,29.285-17.39,46.324v45.109c-0.005,5.151-1.214,10.23-3.531,14.83l-1.766,3.708 c-2.317,4.601-3.526,9.679-3.531,14.83v31.338c0.003,8.803,3.495,17.247,9.71,23.481c4.702,4.734,7.896,10.755,9.181,17.302 c4.187,18.205,12.223,35.302,23.57,50.141c1.076,1.492,1.662,3.281,1.677,5.12v27.454c0.029,1.549-0.368,3.075-1.148,4.414 l1.148,9.445L256,370.759l61.793-26.483l1.148-9.445c-0.78-1.338-1.177-2.865-1.148-4.414v-27.454 c0.015-1.839,0.601-3.628,1.677-5.12c11.346-14.839,19.383-31.936,23.57-50.141c1.284-6.547,4.479-12.568,9.181-17.302 c6.215-6.235,9.707-14.678,9.71-23.481v-31.338C361.926,170.43,360.717,165.351,358.4,160.75z" fill="#95A5A5"></path><g><path style="" d="M256,361.931l-35.31,35.31l-67.796-36.988l36.988-22.246c1.327-0.753,2.425-1.851,3.178-3.178 l1.148,0.618L256,361.931z" fill="#BDC3C7"></path><path style="" d="M359.106,360.254l-67.796,36.988L256,361.931l61.793-26.483l1.148-0.618 c0.753,1.327,1.851,2.425,3.178,3.178L359.106,360.254z" fill="#BDC3C7"></path></g><polygon style="" points="291.31,485.517 220.69,485.517 247.172,414.897 264.828,414.897 " fill="#CC4B4C"></polygon><polygon style="" points="247.172,414.897 220.69,485.517 150.069,361.931 152.894,360.254 220.69,397.241 228.281,389.65 " fill="#ECF0F1"></polygon><polygon style="" points="283.719,389.65 264.828,414.897 247.172,414.897 228.281,389.65 256,361.931 " fill="#802F34"></polygon><polygon style="" points="361.931,361.931 291.31,485.517 264.828,414.897 283.719,389.65 291.31,397.241 359.106,360.254 " fill="#ECF0F1"></polygon></g></svg>